<?xml version="1.0" encoding="UTF-8"?>
<svg id="Layer_1" xmlns="http://www.w3.org/2000/svg" version="1.1" viewBox="0 0 40 40">
  <!-- Generator: Adobe Illustrator 29.3.0, SVG Export Plug-In . SVG Version: 2.1.0 Build 146)  -->
  <defs>
    <style>
      .st0 {
        fill: #2ef2ff;
      }
    </style>
  </defs>
  <path class="st0" d="M16.5,22.7v16.8h-3.8v-15.6c1.1-.5,2.3-.9,3.8-1.1Z"/>
  <path class="st0" d="M10.5,25v14.4h-3.8v-10.6c.8-1.3,2.1-2.7,3.8-3.8Z"/>
  <rect class="st0" x="3.2" y="35.7" width="13.4" height="3.8"/>
  <path class="st0" d="M12.8,7.1H3.2v3.8h3.6v10.6c1.1-.8,2.3-1.6,3.8-2.2v-8.4h2.2v7.5c1.1-.4,2.4-.6,3.8-.8V7.1h-3.8,0Z"/>
  <path class="st0" d="M27.4.6v15.9c-1.1.5-2.3,1-3.8,1.3V.6h3.8Z"/>
  <path class="st0" d="M33.4.6v10.3c-.8,1.5-2,3-3.8,4.3V.6h3.8Z"/>
  <path class="st0" d="M33.4,28.5v-10l-3.8,2.4v7.5h-2.2v-6.6c-1.1.4-2.4.7-3.8.9v9.4h13.4v-3.8h-3.6Z"/>
  <rect class="st0" x="23.6" y=".6" width="13.4" height="3.8"/>
  <path class="st0" d="M10.5,20.2l-3.8,2.4c1.1-.9,2.3-1.7,3.8-2.4Z"/>
  <path class="st0" d="M35.2,5.4c0,.2-.3,2.7-1.8,5.4-.8,1.5-2,3-3.8,4.3-.7.5-1.4.9-2.2,1.3-1.1.5-2.3,1-3.8,1.3-1.3.3-5.8.5-7.1.7-.2,0-.4,0-.7.1-.2,0-.4,0-.5.1-.2,0-.5.1-.7.2-.1,0-.3,0-.4,0,0,0,0,0-.1,0-.1,0-.3,0-.4.1-.3,0-.6.2-.9.3-.8.3-1.5.6-2.2.9l-3.8,2.4C1.3,27.2.7,33.6.6,33.7l4.2.4c0-.2.3-2.7,2-5.3.8-1.3,2.1-2.7,3.8-3.8.7-.4,1.4-.8,2.2-1.2,1.1-.5,2.3-.9,3.8-1.1,1.4-.3,7.7-.8,7.7-.8.3,0,.5-.1.8-.2,0,0,0,0,0,0,.2,0,.3,0,.5-.1.3,0,.6-.2.9-.3.2,0,.3,0,.4-.1.2,0,.3,0,.4-.2.8-.3,1.5-.6,2.2-1,1.4-.8,2.7-1.6,3.7-2.6h0s0,0,0,0c5.3-4.8,6-11.5,6-11.6l-4.2-.4h0Z"/>
</svg>