<?xml version="1.0" encoding="UTF-8"?>
<svg id="Layer_1" xmlns="http://www.w3.org/2000/svg" version="1.1" viewBox="0 0 50.9 56">
  <!-- Generator: Adobe Illustrator 29.3.0, SVG Export Plug-In . SVG Version: 2.1.0 Build 146)  -->
  <defs>
    <style>
      .st0 {
        fill: #fff;
      }

      .st1 {
        fill: #3c52d9;
      }
    </style>
  </defs>
  <path class="st0" d="M20.1,31v22.8h-4.4v-21.5c1.3-.6,2.7-1,4.4-1.3Z"/>
  <path class="st0" d="M13.1,33.7v20.1h-4.4v-15.6c1-1.5,2.4-3.1,4.4-4.5Z"/>
  <rect class="st0" x="4.5" y="49.4" width="15.6" height="4.4"/>
  <path class="st0" d="M15.7,9.8H4.5v4.4h4.2v15.5c1.3-1,2.7-1.9,4.4-2.6v-12.8h2.6v11.9c1.3-.4,2.8-.8,4.4-1v-15.3h-4.4Z"/>
  <path class="st0" d="M35.5,2.2v21.5c-1.3.6-2.7,1.1-4.4,1.5V2.2h4.4Z"/>
  <path class="st0" d="M42.4,2.2v14.9c-1,1.7-2.4,3.5-4.4,5V2.2h4.4Z"/>
  <path class="st0" d="M42.4,41.8v-15.7l-4.4,2.9v12.8h-2.6v-11.7c-1.3.5-2.8.8-4.4,1.1v15.1h15.6v-4.4h-4.2Z"/>
  <rect class="st0" x="31.1" y="2.2" width="15.6" height="4.4"/>
  <path class="st0" d="M13.1,28.1l-4.4,2.8c1.2-1,2.7-2,4.4-2.8Z"/>
  <path class="st1" d="M44.6,10.8c0,.3-.3,3.2-2.1,6.4-1,1.7-2.4,3.5-4.4,5-.8.6-1.6,1.1-2.6,1.6-1.3.6-2.7,1.1-4.4,1.5-1.6.3-3.3.5-5.3.5h-.8c-1.8,0-3.4.1-5,.4-.3,0-.5,0-.8.1-.2,0-.4,0-.6.1-.3,0-.6.1-.8.2-.2,0-.3,0-.4.1h-.2c-.2,0-.3,0-.5.1-.4,0-.7.2-1.1.3-.9.3-1.8.7-2.6,1l-4.4,2.8c-6.2,5.3-7,12.9-7,13l4.9.5c0-.3.4-3.1,2.3-6.2,1-1.5,2.4-3.1,4.4-4.5.8-.5,1.6-1,2.6-1.4,1.3-.6,2.7-1,4.4-1.3,1.6-.3,3.4-.4,5.3-.4h.4c1.9,0,3.7-.1,5.3-.4h.7c.3,0,.6-.1.9-.2h0c.2,0,.4,0,.5-.1.4,0,.7-.2,1.1-.3.2,0,.3-.1.5-.2.2,0,.3-.1.5-.2.9-.3,1.8-.7,2.6-1.1,1.7-.9,3.1-1.9,4.4-3.1h0c6.2-5.7,7-13.5,7-13.6l-4.9-.4v-.2Z"/>
</svg>